<svg width="20" height="20" viewBox="0 0 20 20" fill="none" xmlns="http://www.w3.org/2000/svg">
<path d="M9.50614 16.9999C8.99863 17.0002 8.49237 16.9498 7.99488 16.8496C7.50463 16.7523 7.02558 16.6053 6.56514 16.411C6.12622 16.2215 5.70628 15.9907 5.31098 15.7219C4.91226 15.4536 4.54054 15.1473 4.20105 14.8072C3.86003 14.4686 3.55336 14.0972 3.28551 13.6983C3.01246 13.3048 2.7793 12.885 2.58946 12.4453C2.399 11.9903 2.25203 11.5184 2.1505 11.0357C1.94983 10.0391 1.94983 9.0126 2.1505 8.01602C2.25203 7.53338 2.399 7.06141 2.58946 6.6064C2.77899 6.16656 3.01218 5.7468 3.28551 5.35342C3.54169 4.93781 3.84237 4.55129 4.18224 4.20067C4.51846 3.85705 4.89056 3.55041 5.29217 3.28598C5.68592 3.0129 6.10607 2.77994 6.54633 2.59058C7.00781 2.39916 7.48657 2.25231 7.97607 2.15203C8.47972 2.05054 8.99235 2.00016 9.50614 2.00167C9.98554 1.98862 10.4639 2.05207 10.9233 2.18962C11.3019 2.30413 11.6324 2.53964 11.864 2.85997C12.0268 3.11327 12.1198 3.40502 12.1336 3.70574C12.1345 3.99807 12.0944 4.28908 12.0145 4.5703C11.8474 5.17733 11.6379 5.77188 11.3874 6.34954C10.9189 7.33434 10.6322 8.39549 10.5408 9.48201C10.6635 10.498 10.9538 11.4866 11.3999 12.4077C11.6685 13.0052 11.8887 13.6233 12.0584 14.2559C12.1453 14.5488 12.1896 14.8526 12.19 15.1581C12.1809 15.4742 12.0855 15.7818 11.9141 16.0477C11.6839 16.3816 11.3517 16.6321 10.9672 16.7619C10.4969 16.9219 10.003 17.0024 9.50614 16.9999ZM9.50614 3.17948C7.82805 3.17948 6.2187 3.84548 5.03211 5.03096C3.84553 6.21643 3.17891 7.82429 3.17891 9.50081C3.17891 11.1773 3.84553 12.7852 5.03211 13.9707C6.2187 15.1561 7.82805 15.8221 9.50614 15.8221C10.2774 15.8221 10.7603 15.653 10.9547 15.4087C11.0646 15.1266 11.0646 14.8136 10.9547 14.5316C10.7865 13.9596 10.5769 13.4005 10.3276 12.8588C10.1144 12.3388 9.88866 11.8 9.70053 11.2487C9.51856 10.6893 9.41515 10.1074 9.39326 9.5196C9.46922 8.26858 9.78425 7.04365 10.3213 5.911C10.5457 5.39047 10.7322 4.85447 10.8794 4.30717C10.9771 4.05525 10.9771 3.77597 10.8794 3.52405C10.7915 3.41828 10.6734 3.3418 10.5408 3.30478C10.2041 3.21173 9.85535 3.1695 9.50614 3.17948Z" fill="#A7AAAD"/>
<path d="M12.8297 2.7284C13.3416 3.01606 13.7233 3.48934 13.8957 4.05031C13.9992 4.40178 14.027 4.77117 13.9772 5.13414C13.7724 6.09259 13.4978 7.03484 13.1557 7.95337C13.0034 8.44281 12.919 8.95084 12.9049 9.46322C12.9018 9.51538 12.9018 9.56768 12.9049 9.61984C12.9394 10.1378 13.047 10.6482 13.2247 11.136C13.5915 11.9878 13.8893 12.8678 14.1152 13.7672C14.2036 14.2366 14.1467 14.7218 13.9521 15.1581C13.7042 15.6183 13.309 15.9823 12.8297 16.1918C13.0283 15.9691 13.1989 15.7229 13.3376 15.4588C13.443 15.2451 13.5069 15.0134 13.5257 14.7759C13.4995 14.1963 13.3246 13.6333 13.0178 13.1407C12.7356 12.602 12.4283 12.0632 12.19 11.4931C12.0582 11.1889 11.9513 10.8747 11.8702 10.5533C11.765 10.1571 11.7185 9.74761 11.7323 9.33792C11.8422 8.11174 12.2257 6.92575 12.8547 5.86714C13.0659 5.46984 13.23 5.04935 13.3439 4.61415C13.3782 4.45156 13.3909 4.28514 13.3815 4.11922C13.3423 3.61248 13.1499 3.1296 12.8297 2.73467V2.7284Z" fill="#A7AAAD"/>
<path d="M14.9492 4.37608C15.2061 4.55724 15.4202 4.79248 15.5763 5.06523C15.8327 5.56775 15.9038 6.14447 15.7769 6.69411C15.6264 7.43964 15.3129 8.14758 15.2126 8.89311C15.1747 9.0999 15.1537 9.30942 15.1498 9.5196C15.1498 9.60105 15.1498 9.67623 15.1498 9.75767C15.2162 10.2597 15.336 10.7533 15.5073 11.2299C15.6687 11.6778 15.7802 12.1422 15.8396 12.6145C15.9031 13.131 15.7638 13.652 15.4508 14.068C15.3266 14.2349 15.1763 14.3809 15.0056 14.5002L14.9366 14.5504V14.5128C15.1046 14.2019 15.1925 13.8542 15.1925 13.501C15.1925 13.1477 15.1046 12.8 14.9366 12.4892C14.805 12.1947 14.6607 11.9253 14.5102 11.6184C14.2926 11.1867 14.1283 10.7302 14.0211 10.2589C13.9637 10.006 13.9343 9.74757 13.9333 9.48828C13.9621 8.7323 14.1637 7.99294 14.5228 7.32687C14.7046 6.93218 14.9116 6.56255 15.0621 6.16786C15.128 5.98788 15.1722 5.8007 15.1937 5.61028C15.22 5.30038 15.1793 4.98847 15.0746 4.6956C15.037 4.58909 14.9931 4.48259 14.9492 4.37608Z" fill="#A7AAAD"/>
<path d="M16.3099 7.70277C16.3879 7.73975 16.4598 7.78833 16.5232 7.84686C16.7261 8.02352 16.8669 8.26075 16.9245 8.52348C16.9683 8.79893 16.9809 9.07844 16.9621 9.35671C17.0126 9.67844 17.0126 10.0061 16.9621 10.3278C16.8801 10.6361 16.6795 10.8996 16.404 11.0608L16.2911 11.1234V11.0608C16.3044 10.8522 16.3044 10.6429 16.2911 10.4343C16.2781 10.3212 16.2528 10.2099 16.2159 10.1022C16.14 9.88749 16.0895 9.66462 16.0654 9.43816C16.0624 9.39645 16.0624 9.35457 16.0654 9.31286C16.0669 9.14601 16.088 8.9799 16.1281 8.81793C16.1281 8.69263 16.1845 8.5736 16.2096 8.4483C16.2466 8.21612 16.2676 7.98168 16.2723 7.74662V7.7153L16.3099 7.70277Z" fill="#A7AAAD"/>
<path d="M10.7603 14.9388C9.94609 14.945 9.13722 14.8071 8.37112 14.5316C8.00946 14.4019 7.66091 14.2383 7.33017 14.0429C7.00599 13.8632 6.69946 13.6535 6.41464 13.4164C6.13513 13.1801 5.88085 12.9156 5.65587 12.627C5.43381 12.3384 5.23861 12.0302 5.07269 11.7061C4.91612 11.3765 4.79221 11.0323 4.70271 10.6786C4.53553 9.9509 4.53553 9.19481 4.70271 8.46709C4.79221 8.11338 4.91612 7.76925 5.07269 7.43964C5.39892 6.77346 5.85518 6.17917 6.41464 5.69172C6.70086 5.45651 7.00722 5.24687 7.33017 5.06523C7.66091 4.86982 8.00946 4.7062 8.37112 4.57656C9.13567 4.29247 9.94459 4.14611 10.7603 4.14428C10.9672 4.14428 11.1804 4.14428 11.3874 4.14428L11.287 5.32209C11.1137 5.31257 10.9399 5.31257 10.7666 5.32209C8.01369 5.32209 5.74993 7.20157 5.74993 9.5384C5.74993 11.8752 7.98861 13.761 10.7666 13.761C10.9928 13.7611 11.2189 13.7486 11.4438 13.7234L11.5818 14.8949C11.309 14.9256 11.0347 14.9402 10.7603 14.9388Z" fill="#A7AAAD"/>
<path d="M10.5408 13.0405C9.64095 12.7967 8.81154 12.3437 8.12029 11.7186C7.81512 11.4327 7.56255 11.0956 7.37407 10.7225C7.18757 10.3489 7.09095 9.93704 7.09188 9.5196C7.09473 9.09715 7.19561 8.68112 7.38661 8.3042C7.58478 7.93053 7.84567 7.5936 8.15792 7.30808C8.87639 6.67501 9.73667 6.22379 10.6662 5.99244L10.9798 7.1264C10.2332 7.3102 9.54106 7.66883 8.96058 8.17264C8.7567 8.33695 8.58865 8.54122 8.46678 8.77287C8.34492 9.00453 8.27181 9.25865 8.25198 9.5196C8.26684 9.77472 8.33277 10.0243 8.44586 10.2535C8.55896 10.4827 8.71692 10.6869 8.91041 10.854C9.46439 11.3496 10.1286 11.7061 10.8481 11.894L10.5408 13.0405Z" fill="#A7AAAD"/>
</svg>
