<svg xmlns="http://www.w3.org/2000/svg" viewBox="0 0 219.27 56.47">
    <defs>
        <style>.cls-1{fill:#00968a;}.cls-2{fill:#2b2b2b;}</style>
    </defs>
    <g id="Layer_2" data-name="Layer 2">
        <g id="Layer_1-2" data-name="Layer 1">
            <path class="cls-1"
                d="M28.26,56.47h0a28.45,28.45,0,0,1-5.69-.57,28.16,28.16,0,0,1-5.31-1.65,28.32,28.32,0,0,1-15-15A28,28,0,0,1,0,28.24a28.45,28.45,0,0,1,.57-5.69,28.16,28.16,0,0,1,1.65-5.31,28.32,28.32,0,0,1,15-15A28.16,28.16,0,0,1,22.55.57,28.45,28.45,0,0,1,28.24,0a16.62,16.62,0,0,1,5.32.71,6.73,6.73,0,0,1,3.53,2.52,6.26,6.26,0,0,1,1,3.2,11.27,11.27,0,0,1-.32,3.23,48.3,48.3,0,0,1-2.31,6.7c-1.5,3.79-3.21,8.08-3.18,11.83.11,3.41,1.7,7.27,3.23,11a49.68,49.68,0,0,1,2.49,7,12.21,12.21,0,0,1,.37,3.39,6.62,6.62,0,0,1-1,3.35,7.06,7.06,0,0,1-3.57,2.69,17.27,17.27,0,0,1-5.51.89Zm0-52a23.8,23.8,0,0,0,0,47.59c2.9-.07,4.83-.63,5.44-1.57.41-.62.43-1.72.06-3.28a47,47,0,0,0-2.27-6.3c-.81-2-1.65-4-2.31-6.08a23.71,23.71,0,0,1-1.26-6.5v0c0-4.63,1.84-9.36,3.5-13.54a45.45,45.45,0,0,0,2.1-6c.33-1.43.31-2.43,0-3a2.46,2.46,0,0,0-1.28-.8A12.56,12.56,0,0,0,28.24,4.44Z" />
            <path class="cls-1"
                d="M40.8,2.73a8.63,8.63,0,0,1,4.06,5,10,10,0,0,1,.26,4C44.67,15.33,43,18.78,42,22.29A21.48,21.48,0,0,0,41.1,28c0,.19,0,.41,0,.6a20.74,20.74,0,0,0,1.22,5.69c1.1,3.27,2.75,6.46,3.34,9.91A8.76,8.76,0,0,1,45,49.58a8.81,8.81,0,0,1-4.21,3.9,13.82,13.82,0,0,0,1.9-2.78,6.57,6.57,0,0,0,.7-2.57c.1-2.2-.93-4.23-1.91-6.15s-2.2-4-3.11-6.21a23.5,23.5,0,0,1-1.19-3.52,16.52,16.52,0,0,1-.53-4.59c.13-4.78,2.16-8.9,4.22-13a21,21,0,0,0,1.84-4.8A7.76,7.76,0,0,0,42.89,8,9.81,9.81,0,0,0,40.8,2.73Z" />
            <path class="cls-1"
                d="M48.78,8.93a7.91,7.91,0,0,1,2.37,2.61,8.86,8.86,0,0,1,.68,6.14c-.56,2.8-1.73,5.45-2.12,8.26a15.72,15.72,0,0,0-.16,2.26c0,.3,0,.61.06.91a26.68,26.68,0,0,0,1.33,5.55,23.94,23.94,0,0,1,1.26,5.2,7.68,7.68,0,0,1-1.46,5.47A7.87,7.87,0,0,1,49.06,47l-.27.19,0-.08,0-.07c1.24-2.85,1.36-4.76,0-7.6-.49-1.12-1-2.14-1.6-3.28A21.77,21.77,0,0,1,45.44,31a14.25,14.25,0,0,1-.32-2.91,18.7,18.7,0,0,1,2-8c.69-1.48,1.48-2.88,2-4.36a8.55,8.55,0,0,0,.51-2.11,8.25,8.25,0,0,0-.46-3.44c-.14-.41-.3-.81-.46-1.21Z" />
            <path class="cls-1"
                d="M53.9,21.45a4.17,4.17,0,0,1,.81.56,4.79,4.79,0,0,1,1.49,2.54,13.91,13.91,0,0,1,.16,3.15,12.14,12.14,0,0,1,0,3.66,4.52,4.52,0,0,1-2,2.75,2.82,2.82,0,0,1-.42.23V34.1A15.71,15.71,0,0,0,54,31.83a5,5,0,0,0-.27-1.27,10.76,10.76,0,0,1-.58-2.49,4,4,0,0,1,0-.48,9.37,9.37,0,0,1,.24-1.86c.1-.47.23-.92.32-1.38a21,21,0,0,0,.24-2.65v-.25Z" />
            <path class="cls-1"
                d="M33,48.71A26.11,26.11,0,0,1,24,47.15a25,25,0,0,1-3.92-1.84,22.93,22.93,0,0,1-3.44-2.44,21.77,21.77,0,0,1-2.86-3,19.19,19.19,0,0,1-2.18-3.47,18.19,18.19,0,0,1-1.39-3.86,17.95,17.95,0,0,1,0-8.33,18.19,18.19,0,0,1,1.39-3.86,19.19,19.19,0,0,1,2.18-3.47,21.77,21.77,0,0,1,2.86-3,23,23,0,0,1,3.44-2.45A25,25,0,0,1,24,9.62,26.11,26.11,0,0,1,33,8.06c.78,0,1.56,0,2.34.1l-.39,4.42c-.65-.05-1.3-.08-2-.08-10.36,0-18.78,7.13-18.78,15.88S22.62,44.27,33,44.27a21.68,21.68,0,0,0,2.55-.15L36,48.53A26,26,0,0,1,33,48.71Z" />
            <path class="cls-1"
                d="M32.2,41.56a22.35,22.35,0,0,1-9.12-5,13.22,13.22,0,0,1-2.79-3.75,10,10,0,0,1,0-9,13.45,13.45,0,0,1,2.9-3.8,22.85,22.85,0,0,1,9.43-5l1.18,4.28a18.43,18.43,0,0,0-7.59,3.94,7.26,7.26,0,0,0-2.58,5.12,7.18,7.18,0,0,0,2.48,5,17.93,17.93,0,0,0,7.31,3.93Z" />
            <path class="cls-2"
                d="M68.4,35.2a10.19,10.19,0,0,1-3.93-3.8A10.58,10.58,0,0,1,63.05,26a10.58,10.58,0,0,1,1.42-5.43,10.19,10.19,0,0,1,3.93-3.8A11.52,11.52,0,0,1,74,15.36a11.32,11.32,0,0,1,5.59,1.37,10.08,10.08,0,0,1,3.92,3.8A10.46,10.46,0,0,1,85,26a10.46,10.46,0,0,1-1.44,5.44,10.08,10.08,0,0,1-3.92,3.8A11.32,11.32,0,0,1,74,36.58,11.52,11.52,0,0,1,68.4,35.2Zm10.1-1.7a8.18,8.18,0,0,0,3.13-3.1,9.25,9.25,0,0,0,0-8.86,8.18,8.18,0,0,0-3.13-3.1,9.52,9.52,0,0,0-9,0,8.19,8.19,0,0,0-3.16,3.1,9.11,9.11,0,0,0,0,8.86,8.19,8.19,0,0,0,3.16,3.1,9.52,9.52,0,0,0,9,0Z" />
            <path class="cls-2"
                d="M101.54,21.6a7.16,7.16,0,0,1,2.8,2.82,8.3,8.3,0,0,1,1,4.14,8.4,8.4,0,0,1-1,4.18,7.09,7.09,0,0,1-2.78,2.81,8,8,0,0,1-4,1,7.4,7.4,0,0,1-3.45-.79,6.48,6.48,0,0,1-2.52-2.31v8.74H89.47V20.72h2v3.1A6.61,6.61,0,0,1,94,21.44a7.38,7.38,0,0,1,3.54-.84A8.09,8.09,0,0,1,101.54,21.6Zm-1.16,12.32a5.42,5.42,0,0,0,2.1-2.17,6.51,6.51,0,0,0,.76-3.19,6.44,6.44,0,0,0-.76-3.17,5.46,5.46,0,0,0-2.1-2.16,6.12,6.12,0,0,0-6,0,5.5,5.5,0,0,0-2.09,2.16,6.55,6.55,0,0,0-.76,3.17,6.63,6.63,0,0,0,.76,3.19,5.46,5.46,0,0,0,2.09,2.17,6,6,0,0,0,3,.76A6,6,0,0,0,100.38,33.92Z" />
            <path class="cls-2"
                d="M117.4,35.45a4,4,0,0,1-1.46.82,5.78,5.78,0,0,1-1.82.28A4.15,4.15,0,0,1,109.53,32V17.3h2.12v3.42h4.74v1.79h-4.74v9.36a3,3,0,0,0,.68,2.13,2.6,2.6,0,0,0,2,.73,3.31,3.31,0,0,0,2.32-.8Z" />
            <path class="cls-2"
                d="M121.22,16.85a1.47,1.47,0,0,1-.45-1.08,1.43,1.43,0,0,1,.45-1,1.47,1.47,0,0,1,1.1-.45,1.52,1.52,0,0,1,1.1.44,1.36,1.36,0,0,1,.45,1,1.51,1.51,0,0,1-.45,1.11,1.49,1.49,0,0,1-1.1.45A1.47,1.47,0,0,1,121.22,16.85Zm0,3.87h2.11V36.4h-2.11Z" />
            <path class="cls-2"
                d="M153.46,22.3a6.86,6.86,0,0,1,1.68,5V36.4H153V27.52a5.36,5.36,0,0,0-1.17-3.73,4.32,4.32,0,0,0-3.33-1.28A5,5,0,0,0,144.68,24a5.84,5.84,0,0,0-1.4,4.16V36.4h-2.12V27.52A5.32,5.32,0,0,0,140,23.79a4.33,4.33,0,0,0-3.35-1.28A5,5,0,0,0,132.8,24a5.8,5.8,0,0,0-1.42,4.16V36.4h-2.12V20.72h2v2.87a5.64,5.64,0,0,1,2.33-2.21,7.26,7.26,0,0,1,3.43-.78,6.68,6.68,0,0,1,3.41.84,5.18,5.18,0,0,1,2.16,2.47,6.2,6.2,0,0,1,2.49-2.43,7.73,7.73,0,0,1,3.71-.88A6.26,6.26,0,0,1,153.46,22.3Z" />
            <path class="cls-2"
                d="M175.2,20.72V36.4h-2V33.3a6.5,6.5,0,0,1-2.52,2.42,7.36,7.36,0,0,1-3.53.83,7.9,7.9,0,0,1-4-1,7.26,7.26,0,0,1-2.8-2.83,8.34,8.34,0,0,1-1-4.15,8.3,8.3,0,0,1,1-4.14,7.16,7.16,0,0,1,2.8-2.82,8.1,8.1,0,0,1,4-1,7.51,7.51,0,0,1,3.44.79,6.63,6.63,0,0,1,2.52,2.31v-3Zm-4.93,13.2a5.46,5.46,0,0,0,2.09-2.17,7.07,7.07,0,0,0,0-6.38,5.5,5.5,0,0,0-2.09-2.16,6.22,6.22,0,0,0-6,0,5.43,5.43,0,0,0-2.09,2.16,7.07,7.07,0,0,0,0,6.38,5.4,5.4,0,0,0,2.09,2.17,6.22,6.22,0,0,0,6,0Z" />
            <path class="cls-2"
                d="M188.83,35.45a4.08,4.08,0,0,1-1.46.82,5.82,5.82,0,0,1-1.82.28A4.15,4.15,0,0,1,181,32V17.3h2.11v3.42h4.74v1.79h-4.74v9.36a3,3,0,0,0,.69,2.13,2.6,2.6,0,0,0,2,.73,3.31,3.31,0,0,0,2.32-.8Z" />
            <path class="cls-2"
                d="M195,35.52a7.43,7.43,0,0,1-2.86-2.84,8.59,8.59,0,0,1,0-8.23A7.34,7.34,0,0,1,195,21.62a8.69,8.69,0,0,1,8.17,0A7.22,7.22,0,0,1,206,24.45a8.15,8.15,0,0,1,1,4.11,8.18,8.18,0,0,1-1,4.12,7.31,7.31,0,0,1-2.84,2.84,8.62,8.62,0,0,1-8.17,0Zm7.08-1.6a5.35,5.35,0,0,0,2.07-2.17,7.16,7.16,0,0,0,0-6.38,5.39,5.39,0,0,0-2.07-2.16,6.28,6.28,0,0,0-6,0A5.43,5.43,0,0,0,194,25.37a7.07,7.07,0,0,0,0,6.38,5.4,5.4,0,0,0,2.09,2.17,6.28,6.28,0,0,0,6,0Z" />
            <path class="cls-2"
                d="M215.61,21.41a7.53,7.53,0,0,1,3.66-.81v2.06l-.51,0a5,5,0,0,0-3.88,1.52,6.09,6.09,0,0,0-1.4,4.26v8h-2.11V20.72h2v3.07A5.18,5.18,0,0,1,215.61,21.41Z" />
        </g>
    </g>
</svg>