<svg xmlns="http://www.w3.org/2000/svg" viewBox="0 0 23.96 23.94"><defs><style>.cls-1{fill:#00968a;}</style></defs><g id="Layer_2" data-name="Layer 2"><g id="Layer_1-2" data-name="Layer 1"><path class="cls-1" d="M12,23.94h0a12.16,12.16,0,0,1-2.41-.24A11.74,11.74,0,0,1,7.31,23a12.06,12.06,0,0,1-2-1.1,11.85,11.85,0,0,1-1.77-1.46,11.63,11.63,0,0,1-1.46-1.77,11.52,11.52,0,0,1-1.11-2,12.49,12.49,0,0,1-.7-2.25,12.22,12.22,0,0,1,0-4.82,12.49,12.49,0,0,1,.7-2.25,11.44,11.44,0,0,1,1.11-2A10.74,10.74,0,0,1,3.51,3.51,10.74,10.74,0,0,1,5.28,2.05a11.44,11.44,0,0,1,2-1.11A12.49,12.49,0,0,1,9.56.24,12.16,12.16,0,0,1,12,0a7.19,7.19,0,0,1,2.26.3,2.88,2.88,0,0,1,1.5,1.07,2.73,2.73,0,0,1,.43,1.35A5,5,0,0,1,16,4.1a21.44,21.44,0,0,1-1,2.84,14.47,14.47,0,0,0-1.35,5,14.79,14.79,0,0,0,1.37,4.67,19.56,19.56,0,0,1,1.05,2.95A5.09,5.09,0,0,1,16.28,21a2.77,2.77,0,0,1-.44,1.42,3,3,0,0,1-1.51,1.14,7.12,7.12,0,0,1-2.33.38ZM12,1.88a10.09,10.09,0,0,0,0,20.18c1.23,0,2-.27,2.31-.66a1.93,1.93,0,0,0,0-1.4,19.66,19.66,0,0,0-1-2.67c-.34-.83-.7-1.69-1-2.57A10.15,10.15,0,0,1,11.82,12v0A15.67,15.67,0,0,1,13.3,6.24a18.84,18.84,0,0,0,.89-2.56,1.73,1.73,0,0,0,0-1.25,1.08,1.08,0,0,0-.54-.35A5.59,5.59,0,0,0,12,1.88Z"/><path class="cls-1" d="M17.3,1.16A3.65,3.65,0,0,1,19,3.27,4.14,4.14,0,0,1,19.13,5a32.16,32.16,0,0,1-1.31,4.5,8.94,8.94,0,0,0-.4,2.41,2.09,2.09,0,0,0,0,.25,8.78,8.78,0,0,0,.51,2.42,27.66,27.66,0,0,1,1.42,4.2A3.75,3.75,0,0,1,19.09,21a3.73,3.73,0,0,1-1.79,1.65,5.82,5.82,0,0,0,.81-1.17,3,3,0,0,0,.3-1.09,5.4,5.4,0,0,0-.81-2.61c-.45-.86-.94-1.72-1.32-2.63a9.81,9.81,0,0,1-.51-1.5,6.69,6.69,0,0,1-.22-1.94,13.15,13.15,0,0,1,1.79-5.54,9.26,9.26,0,0,0,.78-2,3,3,0,0,0,.06-.79,4,4,0,0,0-.88-2.21Z"/><path class="cls-1" d="M20.68,3.79a3.43,3.43,0,0,1,1,1.1A3.83,3.83,0,0,1,22,7.49c-.24,1.19-.74,2.32-.9,3.51A6.2,6.2,0,0,0,21,12c0,.13,0,.25,0,.38a11.35,11.35,0,0,0,.57,2.35,10.33,10.33,0,0,1,.53,2.21,3.21,3.21,0,0,1-.62,2.32,3.1,3.1,0,0,1-.71.69l-.11.08v-.06a3.4,3.4,0,0,0,0-3.23c-.21-.47-.44-.9-.68-1.39a9.51,9.51,0,0,1-.78-2.17,5.66,5.66,0,0,1-.14-1.23A7.91,7.91,0,0,1,20,8.5c.29-.63.62-1.22.86-1.85a3.85,3.85,0,0,0,.21-.89,3.47,3.47,0,0,0-.19-1.46c-.06-.17-.13-.34-.2-.51Z"/><path class="cls-1" d="M22.85,9.1a1.36,1.36,0,0,1,.34.23,2,2,0,0,1,.64,1.08,5.93,5.93,0,0,1,.06,1.33,5,5,0,0,1,0,1.55A1.93,1.93,0,0,1,23,14.46l-.18.1v-.1a7.89,7.89,0,0,0,0-1,2.53,2.53,0,0,0-.12-.53,4.67,4.67,0,0,1-.24-1.06,1.41,1.41,0,0,1,0-.2,3.42,3.42,0,0,1,.1-.79c0-.2.09-.39.13-.59a8.18,8.18,0,0,0,.1-1.12V9.12h0Z"/><path class="cls-1" d="M14,20.65A11,11,0,0,1,10.19,20a9.69,9.69,0,0,1-1.66-.78,9.42,9.42,0,0,1-1.46-1,8.46,8.46,0,0,1-1.21-1.26,9.54,9.54,0,0,1-.93-1.47,8.93,8.93,0,0,1-.59-1.64,7.89,7.89,0,0,1,0-3.53,8.93,8.93,0,0,1,.59-1.64A8.88,8.88,0,0,1,7.07,5.89a10.09,10.09,0,0,1,1.46-1,9.69,9.69,0,0,1,1.66-.78A11,11,0,0,1,14,3.42c.33,0,.67,0,1,0l-.16,1.88a7.56,7.56,0,0,0-.83,0c-4.39,0-8,3-8,6.73s3.57,6.74,8,6.74a9.64,9.64,0,0,0,1.08-.06l.22,1.87A11.2,11.2,0,0,1,14,20.65Z"/><path class="cls-1" d="M13.65,17.62a9.43,9.43,0,0,1-3.86-2.11A5.7,5.7,0,0,1,8.6,13.92,4.28,4.28,0,0,1,8.15,12a4.36,4.36,0,0,1,.47-1.94A5.9,5.9,0,0,1,9.85,8.47a9.53,9.53,0,0,1,4-2.1l.5,1.81a7.73,7.73,0,0,0-3.22,1.67A3.06,3.06,0,0,0,10,12a3.05,3.05,0,0,0,1.05,2.13,7.46,7.46,0,0,0,3.09,1.66Z"/></g></g></svg>